<svg width="196" height="195" viewBox="0 0 196 195" fill="none" xmlns="http://www.w3.org/2000/svg">
<g clip-path="url(#clip0_1405_2929)">
<path d="M69.6 3.466C32.9334 15.866 9.33335 42.9327 1.86668 80.666C-6.66665 123.599 19.0667 170.533 60.2667 187.733C77.8667 195.066 73.8667 197.199 112.533 159.599C131.2 141.333 147.2 124.666 148.133 122.399C149.467 119.066 149.333 117.999 147.067 114.933C143.867 110.666 138.933 108.666 134.4 109.733C132.533 110.266 124.8 116.799 117.2 124.266C106.933 134.399 101.067 139.066 94.6667 142.133C64.1334 157.066 37.5333 148.7 23 119.5C18.2 109.9 16.6667 108.266 16.6667 94.7993C16.6667 83.7327 19.6 78.1333 21.6 74C23.2 70.6667 34.9334 56.7993 56.5334 34.9327L87.9349 3.41085C89.1911 2.14982 88.2979 -0.000656128 86.518 -0.000656128H85.3334C82 -0.000656128 74.9334 1.59934 69.6 3.466Z" fill="#30388A"/>
<path d="M85.4666 34.3996L57.6055 62.0892C54.6253 65.051 52.7494 68.9441 52.29 73.1205V73.1205C52.2744 73.2619 52.2708 73.4061 52.2803 73.548C52.5644 77.7987 53.5104 79.7659 56.1333 81.733C62.2666 86.133 67.8666 83.1997 83.9999 66.6663C102.933 47.4663 107.981 41.3746 127.5 42C137.758 42.3287 143.684 45.1511 152.5 50.5C163.484 57.1639 170.067 63.7 175 74.5C178.681 82.4974 178.979 96.0841 178.999 97.3682C179 97.4402 179.002 97.4911 179.005 97.5631C179.076 99.1839 179.261 121.113 140.533 159.2C121.867 177.333 106.667 192.8 106.667 193.466C106.667 197.333 127.067 192.533 142.133 185.2C162 175.466 176.933 160.8 186.667 141.333C194.531 125.733 195.913 99.2857 195.996 97.5557C195.999 97.4934 196 97.4438 195.998 97.3815C195.967 95.9291 195.496 76.2064 192.8 67.733C185.467 43.733 168.133 22.933 144.933 10.133C140.961 7.94411 132.947 5.16374 127.274 3.32036C123.34 2.0418 119.058 2.98787 115.986 5.75924C109.625 11.4991 97.9061 22.2286 85.4666 34.3996Z" fill="#30388A"/>
</g>
<defs>
<clipPath id="clip0_1405_2929">
<rect width="196" height="195" fill="white"/>
</clipPath>
</defs>
</svg>
